<svg width="51" height="51" viewBox="0 0 51 51" fill="none" xmlns="http://www.w3.org/2000/svg">
<path fill-rule="evenodd" clip-rule="evenodd" d="M23.5596 6.75H27.7262C38.0816 6.75 46.4762 15.1447 46.4762 25.5C46.4762 35.8553 38.0816 44.25 27.7262 44.25H13.1429C8.54053 44.25 4.80957 40.519 4.80957 35.9167V25.5C4.80957 15.1447 13.2042 6.75 23.5596 6.75ZM18.4495 28.598C17.8593 27.9685 16.8705 27.9366 16.2409 28.5268C15.6114 29.117 15.5795 30.1058 16.1697 30.7353C18.9842 33.7374 22.2361 35.3958 25.6429 35.3958C29.0497 35.3958 32.3017 33.7374 35.1161 30.7353C35.7064 30.1058 35.6745 29.117 35.0449 28.5268C34.4154 27.9366 33.4265 27.9685 32.8363 28.598C30.4425 31.1515 27.9652 32.2708 25.6429 32.2708C23.3206 32.2708 20.8433 31.1515 18.4495 28.598Z" fill="white"/>
</svg>
