<svg width="48" height="48" viewBox="0 0 48 48" fill="none" xmlns="http://www.w3.org/2000/svg">
<path d="M25.5022 12.1067C25.5022 11.2773 24.8297 10.6048 24.0002 10.6048C23.1708 10.6048 22.4983 11.2773 22.4983 12.1067H25.5022ZM22.4983 40.605C22.4983 41.4345 23.1708 42.1069 24.0002 42.1069C24.8297 42.1069 25.5022 41.4345 25.5022 40.605H22.4983ZM7.9889 6.02254L8.15754 4.53013L7.9889 6.02254ZM22.6339 10.8489L23.4958 9.6189V9.6189L22.6339 10.8489ZM7.9889 36.7446L8.15754 35.2522H8.15754L7.9889 36.7446ZM22.6339 41.571L23.4958 40.341H23.4958L22.6339 41.571ZM40.0116 6.02254L39.8429 4.53013L40.0116 6.02254ZM25.3666 10.8489L24.5047 9.6189V9.6189L25.3666 10.8489ZM40.0116 36.7446L39.8429 35.2522L40.0116 36.7446ZM25.3666 41.571L24.5047 40.341H24.5047L25.3666 41.571ZM10.2301 15.0251C9.41039 14.8981 8.64298 15.4597 8.51603 16.2794C8.38908 17.0991 8.95068 17.8665 9.77039 17.9935L10.2301 15.0251ZM17.4585 19.9766C18.2322 20.2757 19.1019 19.8911 19.4011 19.1174C19.7002 18.3438 19.3156 17.4741 18.5419 17.1749L17.4585 19.9766ZM10.2301 23.0251C9.41039 22.8981 8.64298 23.4597 8.51603 24.2794C8.38908 25.0991 8.95068 25.8665 9.77039 25.9935L10.2301 23.0251ZM13.6328 26.773C14.4371 26.9759 15.2536 26.4884 15.4565 25.6841C15.6594 24.8798 15.1719 24.0634 14.3677 23.8604L13.6328 26.773ZM22.4983 12.1067V40.605H25.5022V12.1067H22.4983ZM7.82026 7.51495C12.1729 8.00679 17.8331 9.31879 21.772 12.0789L23.4958 9.6189C18.9399 6.42648 12.6785 5.04099 8.15754 4.53013L7.82026 7.51495ZM7.82026 38.2371C12.1729 38.7289 17.8331 40.0409 21.772 42.801L23.4958 40.341C18.9399 37.1486 12.6785 35.7631 8.15754 35.2522L7.82026 38.2371ZM2.49833 9.87036V32.3999H5.50215V9.87036H2.49833ZM8.15754 35.2522C6.65887 35.0829 5.50215 33.8369 5.50215 32.3999H2.49833C2.49833 35.4875 4.92731 37.9102 7.82026 38.2371L8.15754 35.2522ZM8.15754 4.53013C4.93222 4.16567 2.49833 6.85762 2.49833 9.87036H5.50215C5.50215 8.35847 6.65396 7.38316 7.82026 7.51495L8.15754 4.53013ZM39.8429 4.53013C35.322 5.04099 29.0606 6.42648 24.5047 9.6189L26.2285 12.0789C30.1674 9.31879 35.8276 8.00679 40.1802 7.51495L39.8429 4.53013ZM39.8429 35.2522C35.322 35.7631 29.0606 37.1486 24.5047 40.341L26.2285 42.801C30.1674 40.0409 35.8276 38.7289 40.1802 38.2371L39.8429 35.2522ZM42.4983 9.87036V32.3999H45.5022V9.87036H42.4983ZM40.1802 38.2371C43.0732 37.9102 45.5022 35.4875 45.5022 32.3999H42.4983C42.4983 33.8369 41.3416 35.0829 39.8429 35.2522L40.1802 38.2371ZM40.1802 7.51495C41.3465 7.38316 42.4983 8.35847 42.4983 9.87036H45.5022C45.5022 6.85762 43.0683 4.16567 39.8429 4.53013L40.1802 7.51495ZM21.772 42.801C23.1057 43.7355 24.8948 43.7355 26.2285 42.801L24.5047 40.341C24.2058 40.5504 23.7947 40.5504 23.4958 40.341L21.772 42.801ZM21.772 12.0789C23.1057 13.0135 24.8948 13.0135 26.2285 12.0789L24.5047 9.6189C24.2058 9.82836 23.7947 9.82836 23.4958 9.6189L21.772 12.0789ZM9.77039 17.9935C12.2278 18.3741 14.9414 19.0032 17.4585 19.9766L18.5419 17.1749C15.7702 16.1031 12.8357 15.4286 10.2301 15.0251L9.77039 17.9935ZM9.77039 25.9935C11.0088 26.1853 12.3161 26.4408 13.6328 26.773L14.3677 23.8604C12.9496 23.5027 11.5496 23.2294 10.2301 23.0251L9.77039 25.9935Z" fill="white"/>
</svg>
